Coordinates
version=1
nRows=21
nColumns=22
inDegrees=yes

Units are S.I. units (second, meters, Newtons, ...)
If the header above contains a line with 'inDegrees', this indicates whether rotational values are in degrees (yes) or radians (no).

endheader
time	pelvis_tilt	pelvis_list	pelvis_rotation	pelvis_tx	pelvis_ty	pelvis_tz	hip_flexion_r	hip_adduction_r	hip_rotation_r	knee_angle_r	ankle_angle_r	subtalar_angle_r	hip_flexion_l	hip_adduction_l	hip_rotation_l	knee_angle_l	ankle_angle_l	subtalar_angle_l	lumbar_extension	lumbar_bending	lumbar_rotation
      3.84000000	     -9.18390078	     -0.45653169	    -66.24497258	      0.16826413	      0.97003894	      1.05527497	     17.19088742	      9.28784661	    -16.96236469	    -18.49796572	      3.64214374	     -2.26765875	     17.21706278	     -9.97766359	      9.40523537	    -50.91713808	     13.66968307	      0.53022409	      0.61677539	      8.80279636	     -9.79855973
      3.85000000	     -9.10964346	     -0.33532157	    -66.45228650	      0.16900492	      0.97064392	      1.05934247	     16.81109750	      9.33016351	    -16.71583644	    -18.18208130	      3.78202871	     -2.22330116	     17.68503101	     -9.52191279	     10.00744559	    -49.59658342	     14.14908711	      0.71615633	      0.58015721	      8.66059199	     -9.57755252
      3.86000000	     -9.10455682	     -0.17881707	    -66.62658125	      0.16977289	      0.97112488	      1.06324492	     16.50115338	      9.41446949	    -16.47315502	    -17.84835255	      3.86977739	     -2.21238910	     18.20590073	     -9.11810880	     10.66820028	    -48.20217485	     14.56505609	      0.73415694	      0.61160251	      8.58091476	     -9.41449797
      3.87000000	     -9.01139934	     -0.02070891	    -66.81205105	      0.17064460	      0.97165475	      1.06702670	     16.18088953	      9.39505465	    -16.22841657	    -17.56359192	      4.00064027	     -2.16353682	     18.61717781	     -8.62498889	     11.33558638	    -46.68348552	     14.88084281	      0.76742793	      0.60182125	      8.42083217	     -9.21035081
      3.88000000	     -8.93081699	      0.15093371	    -66.99078623	      0.17157470	      0.97213772	      1.07067440	     15.89229066	      9.37353259	    -15.95956448	    -17.28737621	      4.11314495	     -2.11494284	     19.00501940	     -8.13771793	     12.04702108	    -45.08664515	     15.14647315	      0.78081361	      0.61080990	      8.27783437	     -9.02148762
      3.89000000	     -8.82639321	      0.33341502	    -67.17472084	      0.17256962	      0.97260567	      1.07420156	     15.62599250	      9.31277938	    -15.67972525	    -17.04091591	      4.22808768	     -2.06753576	     19.33289172	     -7.62100435	     12.80382975	    -43.40609361	     15.35599263	      0.81631359	      0.61916714	      8.11429655	     -8.83200986
      3.90000000	     -8.69872316	      0.52371892	    -67.36739378	      0.17363818	      0.97306350	      1.07761665	     15.38070206	      9.21441209	    -15.38369959	    -16.82761102	      4.34411628	     -2.02194756	     19.59119076	     -7.08120609	     13.60755701	    -41.64516356	     15.51954580	      0.90994286	      0.62601260	      7.93446277	     -8.64298049
      3.91000000	     -8.54636440	      0.71646592	    -67.57548126	      0.17475933	      0.97351656	      1.08093556	     15.15417985	      9.08139383	    -15.07211406	    -16.65402523	      4.46713625	     -1.97572884	     19.76910031	     -6.52980564	     14.45261027	    -39.81029013	     15.64286572	      1.09787557	      0.62575519	      7.73699850	     -8.44943706
      3.92000000	     -8.37499211	      0.90939601	    -67.80107047	      0.17590503	      0.97395727	      1.08417581	     14.94749215	      8.92249032	    -14.74525216	    -16.52051920	      4.59197738	     -1.93155333	     19.86662597	     -5.98843078	     15.32436919	    -37.91189395	     15.72897554	      1.39812056	      0.62111942	      7.52518604	     -8.25749803
      3.93000000	     -8.19602962	      1.08982974	    -68.05575011	      0.17703592	      0.97438132	      1.08736060	     14.75793049	      8.75690531	    -14.40382796	    -16.43620458	      4.72818767	     -1.88465438	     19.88068608	     -5.49556227	     16.18159268	    -35.96955427	     15.78168883	      1.82700288	      0.60217561	      7.31371412	     -8.05661527
      3.94000000	     -8.04182311	      1.24499828	    -68.34653505	      0.17808202	      0.97478614	      1.09052861	     14.56528300	      8.63507336	    -14.01795037	    -16.36156464	      4.84430926	     -1.79642184	     19.82690436	     -5.11136858	     16.97380418	    -34.01546011	     15.84380528	      2.50414183	      0.57101115	      7.13469502	     -7.85288669
      3.95000000	     -7.88004313	      1.42126836	    -68.64629975	      0.17909349	      0.97509995	      1.09360001	     14.45774989	      8.48012312	    -13.67977112	    -16.39145851	      4.98581423	     -1.79093447	     19.74715405	     -4.76896284	     17.71147524	    -32.07148697	     15.75804279	      2.89253513	      0.56133479	      6.93641800	     -7.66829024
      3.96000000	     -7.75138333	      1.54272742	    -69.00245811	      0.17997421	      0.97541082	      1.09671413	     14.31369592	      8.39814634	    -13.26453518	    -16.42436527	      5.11165953	     -1.74281659	     19.58928424	     -4.57764585	     18.27527639	    -30.17834735	     15.67671517	      3.41421572	      0.51423883	      6.78749676	     -7.46571721
      3.97000000	     -7.64032728	      1.69170046	    -69.37034953	      0.18077858	      0.97561059	      1.09976421	     14.26009440	      8.31069345	    -12.90534194	    -16.54196863	      5.24574643	     -1.73296441	     19.45238362	     -4.45578307	     18.69515115	    -28.37741573	     15.39782243	      3.68386035	      0.51013018	      6.63807511	     -7.27902474
      3.98000000	     -7.55242650	      1.82380649	    -69.76295394	      0.18156349	      0.97574169	      1.10274029	     14.23130874	      8.24951002	    -12.52027521	    -16.70643639	      5.39075047	     -1.69779125	     19.30079564	     -4.41824289	     18.93735638	    -26.70620858	     15.02669554	      3.86045935	      0.50313195	      6.52186587	     -7.11246104
      3.99000000	     -7.47678109	      1.95503264	    -70.18578217	      0.18229115	      0.97580943	      1.10570868	     14.23358636	      8.20000182	    -12.13423389	    -16.91454351	      5.54865929	     -1.64785944	     19.13904461	     -4.44335336	     18.98871941	    -25.17966323	     14.49551513	      3.90714343	      0.51264593	      6.41419881	     -6.95330431
      4.00000000	     -7.40543807	      2.08235071	    -70.64171393	      0.18298065	      0.97583218	      1.10868201	     14.25390283	      8.15695996	    -11.73614673	    -17.15913739	      5.72353453	     -1.57900951	     18.95471325	     -4.51307805	     18.85461392	    -23.80852975	     13.80607465	      3.83634694	      0.53635418	      6.31025260	     -6.79953414
      4.01000000	     -7.34185293	      2.20809179	    -71.11564870	      0.18363349	      0.97581180	      1.11165126	     14.28840224	      8.12336487	    -11.32779681	    -17.42454034	      5.90121440	     -1.49634538	     18.75129793	     -4.61608942	     18.56879901	    -22.60017372	     12.96552306	      3.70143209	      0.57854637	      6.20705134	     -6.67274424
      4.02000000	     -7.28563855	      2.30559435	    -71.61310119	      0.18430463	      0.97578867	      1.11463205	     14.29521457	      8.10654993	    -10.90286488	    -17.69089010	      6.08894130	     -1.34465037	     18.49318187	     -4.74957870	     18.15782727	    -21.55596709	     12.00988830	      3.42722307	      0.61515645	      6.12623091	     -6.57820113
      4.03000000	     -7.22239383	      2.44119380	    -72.12780401	      0.18495958	      0.97568668	      1.11760756	     14.34542926	      8.06967782	    -10.48612727	    -17.96974673	      6.27219589	     -1.28300533	     18.23843244	     -4.87634051	     17.63517268	    -20.66115546	     11.05063363	      3.36061224	      0.71408582	      6.01811588	     -6.48926085
      4.04000000	     -7.17540827	      2.54909656	    -72.65008974	      0.18562825	      0.97558283	      1.12059375	     14.35558473	      8.06114374	    -10.05704823	    -18.22043880	      6.45128247	     -1.19909630	     17.92936669	     -5.03304406	     17.04137423	    -19.90680940	     10.13738049	      3.26932635	      0.81212390	      5.93598007	     -6.43500403
